<svg itemprop="logo" version="1.1" id="Layer_1" xmlns="http://www.w3.org/2000/svg" xmlns:xlink="http://www.w3.org/1999/xlink" x="0px" y="0px" viewBox="0 0 457.994 136.566" enable-background="new 0 0 457.994 136.566" xml:space="preserve">
<switch>
	<g>
		<g>
			<g>
				<path fill="#FFFFFF" d="M167.612,45.275h11.989v46.016h-11.989V45.275z"></path>
				<path fill="#FFFFFF" d="M197.779,68.284v23.007h-11.297V44.898l3.146,2.598l25.165,20.789V45.241h11.133l-0.062,46.403
					L197.779,68.284z"></path>
				<path fill="#FFFFFF" d="M285.184,44.115c-11.613,0-16.773,6.65-21.836,18.461l0.016,0.052c-0.49,0.997-0.963,2.034-1.422,3.112
					l-1.49,3.474c-2.777,6.353-4.465,10.123-9.229,10.123c-3.97,0-6.849-3.672-6.849-9.429c0-6.848,3.573-10.719,8.437-13.696
					l-6.55-11.315c-8.041,4.07-14.193,12.407-14.193,25.31c0,13.201,6.848,23.026,19.354,23.026c11.612,0,16.773-6.65,21.836-18.46
					l0.322-0.753c0.37-0.78,0.731-1.584,1.084-2.413l1.49-3.474c2.777-6.352,4.465-10.124,9.228-10.124
					c3.971,0,6.85,3.672,6.85,9.429c0,6.848-3.574,10.719-8.438,13.697l6.551,11.314c8.04-4.069,14.193-12.407,14.193-25.308
					C304.537,53.941,297.689,44.115,285.184,44.115z"></path>
				<path fill="#FFFFFF" d="M311.055,45.275h11.99v46.016h-11.99V45.275z"></path>
				<path fill="#FFFFFF" d="M330.376,45.275h16.572c13.577,0,23.98,8.815,23.98,23.007c0,14.017-10.315,23.009-23.98,23.009h-16.572
					V45.275z M346.332,80.889c8.551,0,12.342-4.848,12.342-12.607c0-7.668-3.791-12.605-12.342-12.605h-3.968v25.212H346.332z"></path>
				<path fill="#FFFFFF" d="M377.771,45.275h32.705V55.59H389.76v7.79h20.129v9.784H389.76v7.813h21.598v10.314h-33.586V45.275z"></path>
				<path fill="#FFFFFF" d="M417.783,45.275h16.572c13.576,0,23.979,8.815,23.979,23.007c0,14.017-10.314,23.009-23.979,23.009
					h-16.572V45.275z M433.738,80.889c8.552,0,12.342-4.848,12.342-12.607c0-7.668-3.79-12.605-12.342-12.605h-3.967v25.212H433.738
					z"></path>
			</g>
			<g>
				<g>
					<g>
						<circle class="center-circle" fill="#FFFFFF" cx="68.344" cy="68.316" r="12.597"></circle>
					</g>
					<g>
						<path class="outer-circle" fill="#676767" d="M68.344,87.632c-10.651,0-19.316-8.665-19.316-19.315c0-10.652,8.665-19.318,19.316-19.318
							c10.65,0,19.315,8.666,19.315,19.318C87.66,78.968,78.995,87.632,68.344,87.632L68.344,87.632z M68.344,52.135
							c-8.922,0-16.181,7.259-16.181,16.182c0,8.92,7.258,16.179,16.181,16.179c8.921,0,16.179-7.258,16.179-16.179
							C84.523,59.394,77.265,52.135,68.344,52.135L68.344,52.135z"></path>
					</g>
				</g>
				<circle fill="#079247" cx="68.283" cy="30.486" r="8.486"></circle>
				<circle fill="#D9E028" cx="68.283" cy="8.486" r="8.486"></circle>
				<circle fill="#EA3981" cx="68.283" cy="106.08" r="8.486"></circle>
				<circle fill="#3DB54A" cx="49.385" cy="35.55" r="4.243"></circle>
				<circle fill="#F27BAA" cx="87.182" cy="101.016" r="4.243"></circle>
				<circle fill="#2AAAE2" cx="101.017" cy="49.385" r="8.485"></circle>
				<circle fill="#ED237A" cx="35.551" cy="87.182" r="8.486"></circle>
				<circle fill="#9D1F60" cx="106.08" cy="68.283" r="4.243"></circle>
				<circle fill="#9D1F60" cx="30.486" cy="68.283" r="4.243"></circle>
				<circle fill="#3DB54A" cx="87.182" cy="35.55" r="4.243"></circle>
				<circle fill="#F27BAA" cx="49.385" cy="101.016" r="4.243"></circle>
				<circle fill="#ED237A" cx="101.018" cy="87.182" r="8.486"></circle>
				<circle fill="#2AAAE2" cx="35.552" cy="49.385" r="8.486"></circle>
				<circle fill="#FECF0A" cx="68.283" cy="128.08" r="8.486"></circle>
				<circle fill="#64CDF2" cx="16.498" cy="38.385" r="8.486"></circle>
				<circle fill="#E571A8" cx="120.069" cy="98.182" r="8.486"></circle>
				<circle fill="#64CDF2" cx="120.068" cy="38.385" r="8.486"></circle>
				<circle fill="#E571A8" cx="16.497" cy="98.182" r="8.486"></circle>
				<circle fill="#8DC641" cx="38.385" cy="16.498" r="8.486"></circle>
				<circle fill="#F79421" cx="98.182" cy="120.069" r="8.486"></circle>
				<circle fill="#8DC641" cx="98.181" cy="16.498" r="8.486"></circle>
				<circle fill="#F79421" cx="38.384" cy="120.069" r="8.486"></circle>
				<circle fill="#932A8E" cx="128.08" cy="68.283" r="8.486"></circle>
				<circle fill="#932A8E" cx="8.486" cy="68.283" r="8.486"></circle>
			</g>
		</g>
	</g>
</switch>
</svg>
